ffmpeg version 3.4.8-0ubuntu0.2 Copyright (c) 2000-2020 the FFmpeg developers
  built with gcc 7 (Ubuntu 7.5.0-3ubuntu1~18.04)
  configuration: --prefix=/usr --extra-version=0ubuntu0.2 --toolchain=hardened --libdir=/usr/lib/x86_64-linux-gnu --incdir=/usr/include/x86_64-linux-gnu --enable-gpl --disable-stripping --enable-avresample --enable-avisynth --enable-gnutls --enable-ladspa --enable-libass --enable-libbluray --enable-libbs2b --enable-libcaca --enable-libcdio --enable-libflite --enable-libfontconfig --enable-libfreetype --enable-libfribidi --enable-libgme --enable-libgsm --enable-libmp3lame --enable-libmysofa --enable-libopenjpeg --enable-libopenmpt --enable-libopus --enable-libpulse --enable-librubberband --enable-librsvg --enable-libshine --enable-libsnappy --enable-libsoxr --enable-libspeex --enable-libssh --enable-libtheora --enable-libtwolame --enable-libvorbis --enable-libvpx --enable-libwavpack --enable-libwebp --enable-libx265 --enable-libxml2 --enable-libxvid --enable-libzmq --enable-libzvbi --enable-omx --enable-openal --enable-opengl --enable-sdl2 --enable-libdc1394 --enable-libdrm --enable-libiec61883 --enable-chromaprint --enable-frei0r --enable-libopencv --enable-libx264 --enable-shared
  libavutil      55. 78.100 / 55. 78.100
  libavcodec     57.107.100 / 57.107.100
  libavformat    57. 83.100 / 57. 83.100
  libavdevice    57. 10.100 / 57. 10.100
  libavfilter     6.107.100 /  6.107.100
  libavresample   3.  7.  0 /  3.  7.  0
  libswscale      4.  8.100 /  4.  8.100
  libswresample   2.  9.100 /  2.  9.100
  libpostproc    54.  7.100 / 54.  7.100
[rawvideo @ 0x563d58531a20] Estimating duration from bitrate, this may be inaccurate
Input #0, rawvideo, from '../../SVC-Encoder-20220109T061506Z-001/SVC-Encoder/Dataset/RollerCoaster/ERP_8x8/tile_yuv/Tile_46_480x240.yuv':
  Duration: 00:00:10.00, start: 0.000000, bitrate: 41472 kb/s
    Stream #0:0: Video: rawvideo (I420 / 0x30323449), yuv420p, 480x240, 41472 kb/s, 30 tbr, 30 tbn, 30 tbc
Stream mapping:
  Stream #0:0 -> #0:0 (rawvideo (native) -> h264 (libx264))
Press [q] to stop, [?] for help
[libx264 @ 0x563d5853ec60] using cpu capabilities: MMX2 SSE2Fast LZCNT SSSE3 SSE4.2 AVX
[libx264 @ 0x563d5853ec60] profile High, level 2.1
Output #0, rawvideo, to 'RollerCoaster_Tile_46_480x240_x264_QP_40.h264':
  Metadata:
    encoder         : Lavf57.83.100
    Stream #0:0: Video: h264 (libx264), yuv420p, 480x240, q=-1--1, 30 fps, 30 tbn, 30 tbc
    Metadata:
      encoder         : Lavc57.107.100 libx264
    Side data:
      cpb: bitrate max/min/avg: 0/0/0 buffer size: 0 vbv_delay: -1
frame=  190 fps=0.0 q=46.0 PSNR=Y:nan U:nan V:nan *:nan size=      31kB time=00:00:04.90 bitrate=  52.0kbits/s speed=9.79x    frame=  300 fps=0.0 q=46.0 LPSNR=Y:inf U:inf V:inf *:inf size=      59kB time=00:00:09.93 bitrate=  48.7kbits/s speed=12.1x    
video:59kB audio:0kB subtitle:0kB other streams:0kB global headers:0kB muxing overhead: 0.000000%
[libx264 @ 0x563d5853ec60] frame I:2     Avg QP:38.86  size:  3019  PSNR Mean Y:31.73 U:39.16 V:40.93 Avg:33.18 Global:33.12
[libx264 @ 0x563d5853ec60] frame P:77    Avg QP:41.29  size:   417  PSNR Mean Y:30.61 U:39.48 V:40.71 Avg:32.13 Global:32.12
[libx264 @ 0x563d5853ec60] frame B:221   Avg QP:45.51  size:   101  PSNR Mean Y:30.33 U:39.40 V:40.61 Avg:31.86 Global:31.85
[libx264 @ 0x563d5853ec60] consecutive B-frames:  1.0%  2.0%  1.0% 96.0%
[libx264 @ 0x563d5853ec60] mb I  I16..4: 34.7% 58.3%  7.0%
[libx264 @ 0x563d5853ec60] mb P  I16..4:  1.6%  2.7%  0.0%  P16..4: 32.1%  1.5%  0.2%  0.0%  0.0%    skip:61.9%
[libx264 @ 0x563d5853ec60] mb B  I16..4:  0.1%  0.1%  0.0%  B16..8: 13.9%  0.4%  0.0%  direct: 0.0%  skip:85.5%  L0:43.8% L1:56.1% BI: 0.1%
[libx264 @ 0x563d5853ec60] 8x8 transform intra:60.7% inter:94.7%
[libx264 @ 0x563d5853ec60] coded y,uvDC,uvAC intra: 26.5% 59.3% 7.2% inter: 1.1% 1.9% 0.0%
[libx264 @ 0x563d5853ec60] i16 v,h,dc,p: 23% 35% 28% 15%
[libx264 @ 0x563d5853ec60] i8 v,h,dc,ddl,ddr,vr,hd,vl,hu:  3% 16% 39%  2% 14%  9%  5%  1% 11%
[libx264 @ 0x563d5853ec60] i4 v,h,dc,ddl,ddr,vr,hd,vl,hu:  4% 45% 24%  0%  3%  2%  2%  0% 19%
[libx264 @ 0x563d5853ec60] i8c dc,h,v,p: 65% 24%  6%  5%
[libx264 @ 0x563d5853ec60] Weighted P-Frames: Y:0.0% UV:0.0%
[libx264 @ 0x563d5853ec60] ref P L0: 59.9%  7.6% 20.5% 12.0%
[libx264 @ 0x563d5853ec60] ref B L0: 84.4% 12.5%  3.1%
[libx264 @ 0x563d5853ec60] ref B L1: 87.6% 12.4%
[libx264 @ 0x563d5853ec60] PSNR Mean Y:30.414 U:39.421 V:40.636 Avg:31.940 Global:31.925 kb/s:48.35
